<svg width="16" height="17" viewBox="0 0 16 17" fill="none" xmlns="http://www.w3.org/2000/svg">
<path d="M8.00179 4.27442C5.73162 4.27442 3.9005 6.13275 3.9005 8.43665C3.9005 10.7405 5.73162 12.5989 8.00179 12.5989C10.2719 12.5989 12.1031 10.7405 12.1031 8.43665C12.1031 6.13275 10.2719 4.27442 8.00179 4.27442ZM8.00179 11.1426C6.53475 11.1426 5.33542 9.92911 5.33542 8.43665C5.33542 6.94418 6.53118 5.73066 8.00179 5.73066C9.47239 5.73066 10.6682 6.94418 10.6682 8.43665C10.6682 9.92911 9.46882 11.1426 8.00179 11.1426ZM13.2274 4.10416C13.2274 4.64391 12.7991 5.07499 12.2708 5.07499C11.739 5.07499 11.3142 4.64029 11.3142 4.10416C11.3142 3.56804 11.7426 3.13334 12.2708 3.13334C12.7991 3.13334 13.2274 3.56804 13.2274 4.10416ZM15.9438 5.08948C15.8831 3.78901 15.5904 2.63706 14.6516 1.68797C13.7165 0.738882 12.5814 0.441839 11.2999 0.376634C9.97925 0.300562 6.02075 0.300562 4.70006 0.376634C3.4222 0.438216 2.28712 0.735259 1.34835 1.68435C0.409593 2.63344 0.120468 3.78538 0.0562186 5.08585C-0.0187395 6.42617 -0.0187395 10.4435 0.0562186 11.7838C0.116899 13.0843 0.409593 14.2362 1.34835 15.1853C2.28712 16.1344 3.41863 16.4315 4.70006 16.4967C6.02075 16.5727 9.97925 16.5727 11.2999 16.4967C12.5814 16.4351 13.7165 16.138 14.6516 15.1853C15.5868 14.2362 15.8795 13.0843 15.9438 11.7838C16.0187 10.4435 16.0187 6.42979 15.9438 5.08948ZM14.2376 13.2219C13.9592 13.9319 13.4202 14.4789 12.717 14.7651C11.664 15.1889 9.16542 15.0911 8.00179 15.0911C6.83815 15.0911 4.33597 15.1853 3.28656 14.7651C2.58695 14.4826 2.04796 13.9356 1.76598 13.2219C1.34835 12.1533 1.44473 9.61757 1.44473 8.43665C1.44473 7.25572 1.35192 4.71636 1.76598 3.65135C2.04439 2.94135 2.58338 2.39435 3.28656 2.10818C4.33954 1.68435 6.83815 1.78216 8.00179 1.78216C9.16542 1.78216 11.6676 1.68797 12.717 2.10818C13.4166 2.39073 13.9556 2.93773 14.2376 3.65135C14.6552 4.71998 14.5588 7.25572 14.5588 8.43665C14.5588 9.61757 14.6552 12.1569 14.2376 13.2219Z" fill="white"/>
</svg>
