<svg width="19" height="16" viewBox="0 0 19 16" fill="none" xmlns="http://www.w3.org/2000/svg">
<path fill-rule="evenodd" clip-rule="evenodd" d="M8.90958 5.04592L8.86995 4.38473C8.75115 2.67113 9.79388 1.10593 11.4438 0.498798C12.051 0.282886 13.0805 0.255897 13.7537 0.44482C14.0177 0.525787 14.5193 0.795597 14.8756 1.0385L15.5224 1.48377L16.2352 1.25441C16.6312 1.13292 17.1592 0.930542 17.3967 0.795597C17.6211 0.674186 17.8191 0.606674 17.8191 0.647197C17.8191 0.876564 17.3307 1.65916 16.9216 2.09091C16.3672 2.69812 16.5256 2.7521 17.6475 2.34726C18.3207 2.1179 18.3338 2.1179 18.2019 2.37425C18.1226 2.5092 17.7135 2.98146 17.2779 3.41321C16.5387 4.15536 16.4992 4.23633 16.4992 4.857C16.4992 5.81498 16.0504 7.81193 15.6016 8.90486C14.77 10.9558 12.9881 13.0741 11.2062 14.1401C8.69839 15.6378 5.35891 16.0156 2.54748 15.1386C1.61034 14.8417 0 14.0861 0 13.9512C0 13.9107 0.488346 13.8567 1.08236 13.8433C2.32308 13.8163 3.5638 13.4654 4.61975 12.8448L5.33257 12.413L4.51415 12.1297C3.35261 11.7248 2.30987 10.7938 2.04593 9.91682C1.96667 9.63348 1.99309 9.61995 2.73225 9.61995L3.49783 9.60649L2.85105 9.29616C2.08547 8.90486 1.38594 8.24367 1.04274 7.56903C0.79192 7.0833 0.475215 5.85543 0.5676 5.761C0.59394 5.72056 0.871175 5.80145 1.18796 5.9094C2.09868 6.24673 2.21749 6.16576 1.68951 5.59907C0.699535 4.57365 0.39596 3.04889 0.871175 1.60518L1.09557 0.95753L1.96667 1.83455C3.74865 3.60213 5.84733 4.65462 8.24959 4.96495L8.90958 5.04592Z" fill="white"/>
</svg>
